<svg id="Layer_1" data-name="Layer 1" xmlns="http://www.w3.org/2000/svg" viewBox="0 0 1080 1080"><defs><style>.cls-1{fill:#f1df84;}</style></defs><path class="cls-1" d="M74.08,548.64c-.09-13.15,4-19.64,16.54-24.46,5.76-2.21,9.09-5.75,10.48-11.68,4-17.09,8.51-34.07,12.16-51.24,2.54-11.93,9.36-19,21-21.43,34.4-7.13,68.84-14.06,103.24-21.17q74.09-15.32,148.14-30.77c36-7.52,72-15.24,108-22.68,6.53-1.34,11.07-2.53,10.83-11.34a17.24,17.24,0,0,1,12.38-17c9-2.74,17.59.26,21.84,8.48,4.1,7.94,8.9,8,16.29,6.29,56.49-12.82,113.07-25.21,169.59-37.94,53.63-12.08,107.21-24.42,160.81-36.63q56.14-12.8,112.3-25.51c4.11-.92,7.17-1.89,7.86-7,1.09-8,6.76-11.88,14.37-11.86,7.9,0,12.19,5.14,14.15,12.49q9.93,37.23,19.95,74.43,4.05,15.06,8.27,30.08c2.1,7.39.66,14.14-5.85,18-6.21,3.71-13.25,3.61-18.64-2.48-3.95-4.46-8.37-2.58-12.62-1.28q-104.37,32-208.7,64.19c-22.65,7-45.25,14.1-68.07,20.44-7.33,2-10.59,6.22-12.62,12.87-4.92,16.12-10.88,31.9-16.44,47.81-4,11.3-13.83,14.92-21.89,20.84-4.5,3.3-5.73-3.19-7.15-5.49-14-22.7-32.91-40.91-54.08-56.46C589.9,434.17,538,422.64,481.15,432.6c-46,8.07-83.73,30.78-114.64,64.93-48,53-59.48,115-43.18,183.26,2.64,11.07,5.94,22.05,11.46,32,3.94,7.11,1.67,10.21-5,13-25.17,10.44-50.24,21.12-75.34,31.74Q178.3,789.75,102.11,822c-18.56,7.86-37.21,15.5-55.64,23.63-6.53,2.89-10.71,2-14.3-4.38a167.41,167.41,0,0,0-12.74-19.5c-5.57-7.27-1.72-10.16,4.83-11.86,18.33-4.75,35.76-11.85,53.05-19.42,53.42-23.41,98.84-57,133.37-104.45a250.15,250.15,0,0,0,32.62-61.78c1.48-4,5-9.17,1.63-12.73s-7.88.74-11.66,2q-23.69,7.57-47.09,16c-11.66,4.2-21.13.88-29.15-7.63-10.94-11.59-21.66-23.38-32.35-35.19-7-7.71-14.49-11.8-25.8-9.45C86.2,579.83,74.2,565.14,74.08,548.64Z"/><path class="cls-1" d="M697.33,629.79C695.86,728,617.87,808.58,518.22,808.53c-102.75-.06-182.46-83.17-179.89-185.86,2.48-99.44,85.39-172.77,180.79-171.74C616.09,452,697.52,526.94,697.33,629.79ZM482.54,646.25c-3.43-1.82-4.27-2.65-5.11-2.66-30.95-.14-61.91-.14-92.86-.31-6.27,0-6.76,3.18-5.84,8.2a148.57,148.57,0,0,0,24.94,59.74c4.31,6.11,7,4.8,11.21.53q14-14.29,28.36-28.17C456,671.26,469,659.14,482.54,646.25Zm73.57-2.79c-.48,1-1,2.06-1.42,3.09q34.26,33.81,68.49,67.65c2.85,2.82,4.6,2.52,6.94-.62,13.65-18.33,21.85-39,26.53-61.18,1.41-6.7-.89-9.3-8-9.18-21.17.37-42.35.21-63.52.24C575.45,643.48,565.78,643.46,556.11,643.46ZM502,666.09c-22.45,22.41-44.1,44.31-66.13,65.82-5.68,5.54-4.48,8.6,1.36,12.64,17.41,12,36.79,19.06,57.26,23.62,6.89,1.53,10.06,0,9.92-8-.48-27-.22-54-.38-81.06C504,675.23,504.66,671.24,502,666.09Zm-.62-74,2.54-1.62q0-47.55,0-95.1c0-4.54-3.2-5.3-6.82-4.47-21.82,5-43.76,9.47-62.11,23.79-4.44,3.47-4.3,5.38-.66,8.93,9.07,8.84,18,17.86,26.82,26.92C474.6,564.35,488,578.25,501.4,592.1Zm-71.28,22.19v0c15.27,0,30.55,0,45.82,0,1.78,0,4.4.61,4.65-2,.12-1.19-1.35-2.74-2.42-3.8-20.84-20.88-41.88-41.56-62.5-62.65-5.82-6-9-4.46-13.15,1.58-12.31,18-19.87,37.68-24,59-1.23,6.35.82,8.14,6.74,8.07C400.21,614.18,415.17,614.29,430.12,614.29ZM534.76,665.2,531.08,667q0,49,0,98c0,4.17,2.87,4.45,6.12,3.87a156.26,156.26,0,0,0,64.83-27.22c2.85-2.06,3.51-4.12.59-7.09Q568.6,700,534.76,665.2Zm71.67-51v.13c14.31,0,28.62-.22,42.92.09,6.66.15,8.49-2.18,7.24-8.66-4.16-21.6-12-41.51-24.74-59.61-3.87-5.49-6.62-5.73-11.08-1.22-20.53,20.72-41.18,41.31-61.71,62-1.48,1.49-4.33,2.91-3.41,5.35,1.17,3.1,4.51,1.8,6.89,1.82C577.17,614.23,591.8,614.16,606.43,614.16ZM533.9,592c22.76-23.12,44.81-45.63,67-68,3.93-4,3.8-6-.91-9.67-16.68-13.15-36.72-17.45-56.47-22.34-11.87-2.93-12.17-2.26-12.23,9.61q-.19,39-.09,78.11C531.22,583.09,530.26,586.77,533.9,592Z"/></svg>